<?xml version="1.0" encoding="UTF-8"?>
<svg viewBox="0 0 650 650" xmlns="http://www.w3.org/2000/svg">
 <path d="m186.86 645.3l37.87-72.229c-16.081 6.5765-33.48 11.635-51.387 15.75-4.925 0.97888-5.0296 0.82892-3.5875-5.1462 0.81697-3.385 2.8574-9.7476 4.5343-14.139 4.2587-11.153 4.113-11.547-3.3318-9.0185-7.1087 2.4139-39.409 7.7827-46.916 7.7981l-4.8284 0.01 5.1601-9.0027c2.8381-4.9514 6.7787-11.058 8.757-13.57 1.9783-2.5122 3.283-4.7704 2.8995-5.0184-0.38354-0.24799-5.5442 0.11176-11.468 0.79926-14.432 1.6749-51.48 4.0267-52.565 3.3367-1.5692-0.99847 15.395-16.69 26.018-24.066l10.429-7.241-22.099-0.7972c-19.512-0.70392-52.538-4.2739-55.099-5.9561-2.1494-1.4115 13.953-9.0749 42.694-20.319 2.5176-0.98496 1.3496-1.7837-5.2884-3.6167-14.05-3.8796-30.462-12.971-41.116-22.776-9.227-8.4913-22.332-25.965-22.47-29.963-0.035849-1.033 5.3134-0.080109 13.896 2.4756 7.6751 2.2853 14.402 4.1551 14.95 4.1551 0.54726 0-3.2504-5.2518-8.4394-11.671-12.702-15.713-20.225-33.405-21.914-51.539-1.5276-16.396-0.3827-17.515 9.5792-9.3601l6.3938 5.2338-1.0724-13.464c-1.0655-13.377 2.6371-41.987 5.7027-44.065 0.88124-0.59732 4.7473 1.7898 8.5912 5.3048s7.1711 6.3888 7.3936 6.3864c0.22257-0.00238 0.60347-3.981 0.84641-8.8413 0.43321-8.6666 9.9925-36.027 13.369-38.266 0.94321-0.62534 3.9112 2.2157 6.5956 6.3134l4.8807 7.4504 6.9491-12.781c10.49-19.293 26.693-38.954 36.515-44.307 2.9596-1.613 3.413-1.3908 3.413 1.6728 0 1.9431 0.60799 5.5292 1.3511 7.9692l1.3511 4.4362 17.232-12.095c26.867-18.857 48.263-25.427 69.444-32.955 12.533-4.4542 31.512-8.3662 30.529-7.2474-0.61255 0.69766-3.801 3.0374-8.1843 7.1689-20.493 19.316-40.496 40.85-50.473 62.952-7.4136 16.424-9.4145 40.721-4.4851 54.462 7.8239 21.811 19.953 34.026 61.558 61.995 32.635 21.939 43.238 32.397 43.238 42.648 0 7.536-2.8492 11.607-12.868 18.387-4.8062 3.2522-9.3268 7.4524-10.046 9.3337-2.082 5.4475 0.63051 12.719 6.6909 17.937 5.4885 4.7254 22.216 12.987 23.968 11.837 0.48758-0.32019 9.7472-15.805 20.577-34.41s20.366-34.332 21.193-34.947c0.82623-0.61563 10.456 14.344 21.4 33.243 10.944 18.9 20.621 34.856 21.505 35.458 2.3462 1.5984 20.563-7.9853 25.843-13.596 4.9698-5.2806 5.8994-13.544 2.0656-18.36-1.353-1.6995-6.167-5.7577-10.698-9.0184-9.2752-6.675-11.625-11.052-9.8306-18.312 2.4845-10.054 10.944-18.092 39.902-37.913 42.586-29.149 50.622-36.503 61.116-55.934 5.3725-9.9482 7.5178-35.519 4.0706-48.519-6.8091-25.677-30.214-57.366-56.996-77.168-5.5137-4.0768-10.025-7.6751-10.025-7.9962 0-1.2721 23.505 3.9591 38.584 8.587 22.712 6.9706 39.441 15.271 61.974 30.749 21.128 14.513 22.124 14.635 22.2 2.7197 0.016174-2.5286 0.75641-4.5778 1.6451-4.5537 2.3721 0.064224 14.083 10.763 22.105 20.195 3.8428 4.5179 10.663 15.022 15.157 23.341l8.1702 15.127 4.8094-7.4933c2.6452-4.1213 5.5402-6.9859 6.4334-6.3657 3.0472 2.1159 10.809 21.591 13.552 34.006l2.738 12.389 6.0789-6.0121c3.3434-3.3066 6.8104-6.012 7.7044-6.012 2.8751 0 6.7717 27.128 6.0455 42.088-0.38715 7.9766-0.21924 14.502 0.37311 14.5 0.59247-0.001709 4.2866-2.3902 8.2092-5.3079l7.1321-5.3048-1.0029 14.853c-1.3718 20.316-6.1967 32.69-19.585 50.23-12.585 16.486-12.603 16.464 7.9397 9.684 9.1223-3.0108 10.232-3.1131 10.232-0.94299 0 1.3388-4.3971 8.3698-9.7714 15.624-11.533 15.569-29.632 28.573-48.793 35.06l-12.25 4.1469 15.481 5.9417c16.916 6.4922 31.252 13.902 29.362 15.175-2.6393 1.7776-34.492 5.3843-54.271 6.1453-11.552 0.4444-21.003 1.0061-21.003 1.2482 0 0.24206 3.9083 3.1732 8.6849 6.5137 9.2692 6.4822 25.782 21.818 25.782 23.944 0 0.70428-2.1811 0.98834-4.8469 0.63129-2.6657-0.357-12.602-1.0428-22.08-1.5239-9.4783-0.4812-21.482-1.496-26.674-2.2551-5.1926-0.75916-9.8647-1.1021-10.382-0.76208-0.51782 0.34003 1.1844 3.3548 3.7828 6.6994s6.4913 9.4537 8.6509 13.576c3.3657 6.4238 3.4686 7.4949 0.72064 7.4949-7.3275 0-37.092-4.6627-45.817-7.1773l-9.4034-2.7102 1.3339 3.1754c3.3947 8.0813 8.3377 26.621 7.2823 27.314-14.884 2.4747-57.72-20.257-54.518-13.969l35.928 70.548-134.85-61.621-138.12 61.414z"/>
 <path d="m323.07 574.39l117.6 54.77-47.104-83.182c-1.057-1.8665 4.8804-6.8376 8.2385-2.3502 5.8523 7.8206 32.431 24.055 48.736 29.768 7.4806 2.6212 14.009 4.4962 14.507 4.1668 1.9459-1.2866-5.8425-17.263-12.99-26.647-4.1402-5.4355-11.884-13.419-17.209-17.741-11.938-9.69-9.131-11.965 3.5448-2.8727 16.364 11.737 45.154 23.6 65.03 26.795 7.4068 1.1906 7.033-0.024048-3.5982-11.691-9.741-10.69-22.304-20.424-35.47-27.484-15.833-8.49-9.9097-9.7492 6.7202-1.4286 15.413 7.7115 29.764 12.059 52.508 15.904 17.393 2.941 24.3 3.4244 24.212 1.6946-0.10998-2.1772-14.25-13.111-23.41-18.102-5.2042-2.8354-16.001-7.7238-23.993-10.863-17.15-6.7363-27.71-11.011-23.265-16.115 44.871-51.514 1.7352-93.004 14.049-114.61 11.611-20.371 43.416-11.787 50.196-84.279 1.8355-19.72-15.721-34.95-38.47-51.363-11.835-8.5391-47.682-28.234-47.682-26.197 7.7278 7.3253 14.998 14.814 21.23 22.795 23.391 31.237 27.278 61.311 11.874 91.863-10.571 20.966-26.264 36.147-62.867 60.815-37.221 25.084-42.143 34.918-24.218 48.382 18.748 14.082 16.264 24.123-9.9752 40.324-18.892 11.665-28.348 16.315-29.382 14.648l-37.638-60.721-38.953 61.764c-1.261 1.9995-40.885-22.849-45.191-27.456-9.776-11.656-1.9141-21.65 9.2664-30.834 15.151-11.99 9.4977-21.338-28.856-47.71-39.364-27.068-57.607-46.918-66.03-71.851-5.3383-15.8-3.2868-42.486 4.5028-58.571 6.6529-13.738 18.202-29.106 28.74-38.242 8.4377-7.3152 7.1023-6.899-16.296 5.0782-31.275 16.01-53.963 37.003-62.006 57.376-4.7336 11.989-3.3273 35.536 2.8073 47.006 8.3453 15.603 16.825 26.154 37.64 43.031 10.657 8.1421 12.917 22.623 5.7693 36.386-16.9 32.543-3.1468 56.024 15.234 80.816 2.6927 3.632-4.9703 10.735-22.295 17.487-19.208 7.4859-40.848 19.913-45.882 26.349l-3.3043 4.2246 10.429-0.967c25.424-2.3572 54.182-10.421 71.088-19.935 14.96-8.4181 14.539-3.828-0.48294 5.273-7.8721 4.7692-17.894 11.918-22.272 15.885-10.443 9.4655-20.263 20.776-18.85 21.71 1.8061 1.1942 16.393-2.3339 32.647-7.8959 9.0579-3.0996 21.614-9.2787 31.444-15.474 9.0008-5.6728 16.943-9.9319 17.65-9.4647 0.70674 0.46728-3.4491 4.9332-9.2352 9.9244-12.198 10.522-21.992 23.477-26.55 35.119-3.7146 9.4878-2.861 9.8207 11.275 4.398 22.528-8.6426 51.889-27.323 51.889-33.014 0-0.9068 5.0847-2.3452 4.7197-1.6487l-45.718 87.234 115.64-52.277z" stroke-width="0"/>
 <path d="m323.59 561.82l-90.248 40.874 35.05-67.017-62.946-30.617 87.136-1.7976 31.528-50.884 32.487 51.591 85.637 1.0609-64.763 35.481 36.182 63.372-90.063-42.064z" fill="#f00" stroke-width="10"/>
 <g fill="#fff">
  <path d="m100.86 261.93c-1.0451 0.17459-3.9374 3.1791-8.3474 8.9297-13.241 17.266-22.938 29.601-17.452 49.37 1.187 4.2783 1.3004 14.183 8.8951 26.886-19.308-10.113-24.934-35.788-25.236-43.322l-0.1346-3.5365-2.3561 3.5365c-3.5044 5.341-14.943 31.158-1.477 53.788 7.7691 13.056 8.5258 15.891 17.799 25.227-14.726-12.511-22.197-14.7-30.682-32.16l-6.0375-16.308-1.5483 10.3c-2.9443 19.622 5.6155 50.948 29.422 73.061-20.288-12.336-21.568-14.374-36.289-28.413-3.1381-3.5164-6.1798-6.1093-6.7317-5.7469-1.6704 1.097 3.8788 16.57 9.3571 26.17 6.4231 11.255 28.293 36.373 42.56 44.404-14.248-0.94022-17.267-2.1508-28.376-5.502-8.7775-2.648-14.512-4.515-15.06-4.1555-2.3389 1.536 11.557 15.459 22.551 20.91 13.36 6.624 32.661 13.836 49.313 20.374-18.814 4.5216-39.448 15.545-36.859 17.245 6.1326 4.0271 58.983 3.0277 81.252-1.5473 9.8356-1.4418 24.825-7.1695 17.906-14.456-46.518-63.611 2.7273-75.09-14.406-110.74-27.724-19.172-45.614-43.991-51.363-71.261-2.5-11.858-1.3957-29.648 2.3561-38.239 1.4757-3.379 1.7553-4.9544 0.94245-4.8185z"/>
  <path d="m546.9 262.73c1.0452 0.17459 3.9374 3.1791 8.3474 8.9298 13.241 17.266 22.938 29.6 17.452 49.37-1.187 4.2783-1.3004 14.183-8.8951 26.886 19.308-10.113 24.934-35.788 25.236-43.322l0.1346-3.5366 2.3561 3.5366c3.5044 5.341 14.943 31.158 1.477 53.788-7.7691 13.056-8.5258 15.891-17.799 25.227 14.726-12.511 22.197-14.7 30.682-32.16l6.0375-16.308 1.5483 10.3c2.9443 19.622-5.6155 50.948-29.422 73.061 20.288-12.336 21.568-14.374 36.289-28.413 3.1381-3.5164 6.1798-6.1093 6.7318-5.7469 1.6705 1.097-3.8788 16.57-9.3571 26.17-6.423 11.255-28.293 36.373-42.56 44.404 14.248-0.94019 17.267-2.1508 28.376-5.502 8.7774-2.648 14.512-4.515 15.06-4.1555 2.3389 1.536-11.557 15.459-22.551 20.91-13.36 6.624-32.661 13.836-49.313 20.374 18.814 4.5217 39.448 15.545 36.859 17.245-6.1326 4.0272-58.983 3.0277-81.252-1.5473-9.998-1.4335-25.171-6.871-17.906-14.456 46.518-63.611-2.7273-75.09 14.406-110.74 27.724-19.172 45.614-43.991 51.363-71.261 2.5-11.858 1.3956-29.648-2.3561-38.239-1.4757-3.3789-1.7553-4.9544-0.9425-4.8185z"/>
 </g>
 <ellipse cx="320.91" cy="467.12" rx="181.65" ry="172.85" fill="#fff"/>
 <defs transform="translate(213.45 362.47) scale(1 1.0445) translate(-188.23 582.67) scale(1.2293 1.2038) translate(-399.8 -100.35) scale(1 1.0101) translate(-4.878 -318.13) scale(.89825 .87244) translate(-95.542 -169.66)">.fil0 {fill:#663300}     .fil1 {fill:url(#id0)}</defs>
 <path d="m307.1 639.66c-78.113-5.0314-146.71-62.938-166.07-133.04-17.861-72.693 17.609-154.55 86.816-192.5 44.515-25 100.37-28.126 149.64-15.104 60.854 17.584 107.18 68.502 123.44 125.31 14.608 52.351 4.0721 111.79-34.754 153.04-35.165 41.186-91.375 64.914-147.59 62.795-3.8315-0.074707-7.6608-0.24426-11.483-0.50342zm46.559-8.239c14.017-1.15 11.553-5.1916-1.1961-6.2174-22.777-4.122-47.37-4.2294-69.353 2.999 19.351 8.7731 45.057 6.5143 66.72 3.8965l3.8294-0.678v-6.1e-5zm-69.011-11.58c10.003-9.5973-0.43286-32.53-9.1745-41.616-19.538-9.3735-34.688-24.695-52.559-36.249-13.459-4.6061-26.586 4.1495-39.596 7.116-0.058105 12.088-0.89676 25.737 10.417 34.142 18.625 17.286 41.105 32.439 66.477 39.324 8.1495 0.357 16.708-0.10889 24.436-2.7168zm107.11 0.4835c32.418-13.135 62.828-34.244 81.109-62.971 6.5821-8.2668 11.415-22.739-5.7772-17.953-21.596 12.762-41.098 28.557-63.223 40.647-13.414 9.9736-23.077 23.698-32.613 36.824 3.3248 7.271 14.131 5.5373 20.504 3.4531zm21.976-52.783c16.296-12.564 39.875-20.658 48.43-39.717 3.8655-14.987 4.1691-30.498 5.7809-45.786-16.238-13.543-36.18-22.726-55.678-31.403-19.269 1.4502-34.842 17.528-50.08 27.947-8.1198 4.213-6.0352 13.679-8.2414 20.936-2.9524 16.97-6.3712 33.887-8.3394 50.99 15.161 10.542 32.086 20.217 50.52 24.284 6.6615 0.077148 12.196-4.1638 17.608-7.2502zm-116.23 2.6451c14.758-5.29 34.286-9.2852 41.214-23.976 5.1374-20.585 7.9949-41.65 10.71-62.62-14.662-13.099-30.316-26.91-49.541-33.746-16.584-0.25024-30.64 10.77-45.398 16.789-19.855 5.0618-26.751 22.028-27.619 39.55-5.8254 17.333 0.85998 35.139 17.602 44.693 14.623 10.127 33.417 26.273 53.032 19.308zm-123.52-24.293c-11.973-20.796-20.23-43.57-23.526-67-11.84 2.2391-1.0787 29.532 2.1839 40.668 5.5828 15.042 14.124 28.871 22.979 42.392 1.6194-5.5634 2.5796-11.089-1.6366-16.061zm-5.1566-92.574c5.2285-7.0126 13.55-12.548 16.686-20.56 5.5354-24.254 14.564-47.669 27.478-69.353-0.54562-14.01-17.207-22.522-25.503-7.0838-23.638 28.578-42.181 63.401-42.997 100.16-3.1081 12.606 8.5743 21.777 15.304 6.8499 3.0154-3.3324 6.0252-6.6691 9.0316-10.008zm304.38 17.376c10.02-12.346 23.867-27 20.266-43.723-6.27-31.709-23.611-61.816-50.248-82.481-7.9082-3.1489-22.362-14.737-27.878-3.7916-8.1538 14.705-28.434 28.607-21.127 46.92 6.2638 18.078 10.834 36.973 19.965 53.996 16.797 12.309 36.254 21.876 55.816 29.95l3.2068-0.8712zm-223.49-8.2211c15.51-7.3526 30.576-15.482 45.701-23.499 5.1001-16.728 11.501-33.072 17.465-49.52 0.83389-17.786-16.068-30.565-27.374-43.039-11.103-16.686-29.893-3.8871-43.6 2.2151-30.166 15.124-37.092 48.419-47.342 76.211 1.4222 10.407 11.573 19.094 18.982 26.874 10.24 9.6487 21.752 22.542 36.167 10.758zm111.25-89.903c8.024-1.0333 16.985-0.27689 24.434-2.4086 11.142-11.262 20.95-24.456 25.592-39.257-5.6027-14.921-24.166-21.722-39.068-26.8-18.986-5.3029-39.314-7.9-59.02-5.8046-14.224 6.8187-39.738 26.607-25.332 41.944 10.552 11.794 21.783 23.033 33.22 34.074 13.416 0.12265 26.802-0.86005 40.175-1.7467z"/>
</svg>
